<svg xmlns="http://www.w3.org/2000/svg" xmlns:xlink="http://www.w3.org/1999/xlink" width="1400" zoomAndPan="magnify" viewBox="0 0 1050 599.999999" height="800" preserveAspectRatio="xMidYMid meet" version="1.2"><g id="8410c3d3ca"><path style=" stroke:none;fill-rule:nonzero;fill:#ec4187;fill-opacity:1;" d="M 1542.351562 292.429688 L 1474.527344 239.714844 C 1406.703125 186.433594 1271.058594 81.851562 1135.410156 58.8125 C 999.761719 36.625 864.117188 95.984375 728.46875 96.40625 C 592.824219 95.984375 457.175781 36.625 321.53125 36.199219 C 185.882812 36.625 50.234375 95.984375 -85.410156 141.632812 C -221.058594 186.433594 -356.703125 217.523438 -424.527344 232.082031 L -492.351562 247.203125 L -492.351562 -114.597656 L -424.527344 -114.597656 C -356.703125 -114.597656 -221.058594 -114.597656 -85.410156 -114.597656 C 50.234375 -114.597656 185.882812 -114.597656 321.53125 -114.597656 C 457.175781 -114.597656 592.824219 -114.597656 728.46875 -114.597656 C 864.117188 -114.597656 999.761719 -114.597656 1135.410156 -114.597656 C 1271.058594 -114.597656 1406.703125 -114.597656 1474.527344 -114.597656 L 1542.351562 -114.597656 Z M 1542.351562 292.429688 "/></g></svg>